<?xml version="1.0" standalone="no"?>
<!DOCTYPE svg PUBLIC "-//W3C//DTD SVG 20010904//EN"
 "http://www.w3.org/TR/2001/REC-SVG-20010904/DTD/svg10.dtd">
<svg version="1.0" xmlns="http://www.w3.org/2000/svg"
 width="1024.000000pt" height="1024.000000pt" viewBox="0 0 1024.000000 1024.000000"
 preserveAspectRatio="xMidYMid meet">

<g transform="translate(0.000000,1024.000000) scale(0.100000,-0.100000)"
fill="#000000" stroke="none">
<path d="M5600 8467 c-37 -19 -55 -61 -40 -97 23 -56 97 -61 134 -8 22 31 20
52 -6 82 -29 31 -57 39 -88 23z"/>
<path d="M6550 8216 c-308 -67 -526 -286 -630 -637 -17 -57 -40 -133 -51 -169
-12 -36 -32 -103 -46 -150 -13 -47 -27 -94 -31 -105 -6 -22 -9 -24 68 37 25
19 66 47 91 62 l46 26 6 98 c23 341 211 616 487 713 76 26 270 38 335 20 46
-12 55 -5 55 51 0 34 -3 38 -37 48 -62 18 -221 21 -293 6z"/>
<path d="M4229 8206 c-178 -32 -364 -100 -532 -197 -200 -115 -332 -208 -439
-308 -31 -28 -38 -32 -43 -18 -4 9 -13 13 -21 10 -8 -3 -11 -9 -8 -14 3 -5 9
-7 14 -4 10 6 25 -14 16 -23 -10 -9 -116 100 -109 111 3 6 1 7 -5 3 -7 -4 -80
60 -184 163 -206 202 -199 196 -165 148 16 -20 25 -42 22 -47 -3 -6 -1 -10 5
-10 6 0 9 -4 6 -9 -4 -5 -1 -11 4 -13 16 -5 17 -70 1 -76 -9 -3 -11 2 -7 19
l6 24 -12 -23 c-6 -12 -16 -21 -22 -20 -15 4 -12 9 -51 -119 -42 -136 -60
-185 -67 -178 -3 3 -8 0 -10 -7 -4 -13 16 -62 23 -57 12 8 49 -12 49 -25 0
-25 17 -19 29 12 l11 27 -3 -32 c-4 -39 0 -42 14 -10 9 21 9 20 6 -5 -2 -15 0
-25 4 -22 5 3 9 12 9 21 0 8 9 26 20 40 27 34 25 23 -4 -35 -37 -74 -101 -149
-160 -188 -230 -152 -544 -101 -717 118 -47 60 -50 54 -7 -21 23 -40 121 -144
338 -358 168 -167 311 -303 317 -303 29 0 147 52 201 88 95 65 148 132 247
312 154 279 328 472 575 637 216 145 418 234 632 279 125 27 328 25 440 -3
224 -57 377 -186 438 -368 20 -60 22 -81 17 -194 l-5 -126 -90 -272 c-50 -150
-96 -281 -101 -292 -6 -11 -74 -69 -151 -129 -76 -60 -136 -113 -132 -116 3
-4 0 -11 -8 -16 -12 -8 -11 -10 5 -11 14 -1 11 -4 -10 -10 -26 -7 -24 -7 15
-5 66 4 191 39 186 52 -2 6 2 11 9 11 10 0 10 -8 -1 -41 -7 -23 -49 -151 -93
-286 -44 -135 -136 -420 -206 -635 -69 -214 -139 -428 -154 -475 -16 -47 -113
-341 -216 -655 -102 -313 -199 -605 -214 -648 l-27 -78 -115 -38 c-160 -54
-265 -99 -582 -245 -42 -20 -79 -36 -82 -36 -2 0 -48 -22 -102 -48 -171 -84
-369 -163 -484 -193 -62 -17 -114 -23 -199 -23 -106 -1 -220 16 -220 33 0 3
30 17 68 29 64 23 293 112 301 118 7 6 -47 66 -263 289 -248 256 -285 284
-390 292 -165 14 -304 -92 -341 -258 -7 -35 -22 -86 -31 -114 -27 -78 -24
-289 5 -375 127 -367 519 -537 1014 -439 168 33 349 102 650 246 98 47 181 82
184 79 13 -13 -186 -191 -292 -261 -213 -142 -405 -219 -630 -255 -90 -14
-309 -14 -400 0 -78 12 -222 56 -244 73 -56 47 37 -50 300 -310 l305 -303 500
0 499 -1 290 -285 c160 -157 303 -292 319 -301 57 -30 145 14 162 83 10 40
-13 75 -131 196 -231 239 -259 270 -235 257 28 -14 62 -20 55 -8 -8 12 48 29
110 33 l60 4 175 -172 c293 -289 397 -385 426 -392 43 -11 184 3 259 26 192
59 355 177 492 358 48 62 150 264 178 350 18 57 31 70 21 22 -4 -21 -2 -29 5
-24 7 4 9 24 4 58 -3 28 -3 47 2 42 8 -8 9 -13 12 -41 0 -8 8 -15 16 -15 8 0
15 -6 15 -14 0 -7 14 -16 31 -20 46 -9 49 -8 49 13 0 21 19 31 55 31 13 0 25
5 27 11 2 5 38 13 81 16 42 3 77 10 77 16 0 5 26 7 65 4 36 -3 67 -2 69 1 2 4
-7 8 -21 8 -13 1 -27 5 -31 9 -14 14 27 24 91 22 37 -1 67 1 67 5 0 5 19 8 41
8 36 0 41 2 36 20 -4 17 0 20 29 20 23 0 45 -10 71 -32 21 -18 40 -36 41 -40
8 -18 22 -6 22 20 0 21 2 24 10 12 5 -8 10 -11 10 -7 0 5 7 1 16 -7 17 -17 44
-21 44 -7 0 5 18 12 40 15 22 3 58 9 80 12 24 4 40 2 40 -4 0 -13 70 11 80 27
4 7 25 14 48 14 22 1 38 5 36 9 -2 3 0 8 6 10 6 2 6 8 0 18 -8 13 -10 12 -10
-4 0 -16 -5 -17 -37 -11 -21 4 -182 11 -358 14 l-320 7 350 4 c193 2 371 5
397 6 36 1 63 10 105 36 85 52 140 68 254 71 63 2 103 7 108 15 8 13 91 45 99
38 2 -3 -8 -8 -23 -12 -20 -5 -23 -9 -13 -15 10 -7 10 -9 0 -9 -7 0 -10 -5 -7
-10 4 -7 -2 -9 -17 -5 -18 5 -25 2 -25 -9 0 -8 4 -13 9 -10 4 3 16 0 25 -5 10
-6 14 -11 8 -11 -5 0 15 -15 45 -33 31 -19 57 -42 58 -53 5 -26 22 -43 22 -20
0 10 5 14 11 10 8 -5 10 1 7 20 -4 20 -2 26 8 22 8 -3 14 -1 14 4 0 5 18 19
40 30 22 11 40 25 40 31 0 6 7 8 16 5 9 -3 12 -2 8 5 -4 7 17 10 69 7 41 -2
73 0 70 5 -2 4 3 14 11 23 15 14 17 14 24 -5 4 -12 9 52 10 146 5 286 9 336
26 378 35 82 121 145 201 145 90 0 175 -70 194 -160 12 -57 14 -360 4 -603
l-6 -158 -22 21 c-18 16 -38 21 -116 24 -86 3 -148 19 -169 45 -3 3 -20 20
-39 36 l-33 30 15 -30 c22 -43 430 -446 474 -469 30 -15 50 -17 100 -13 75 7
124 31 180 88 50 50 73 110 73 189 0 73 -22 114 -122 222 -42 45 -91 99 -107
118 l-31 35 2 130 c0 86 3 117 8 90 l7 -40 2 35 c1 19 6 44 10 54 7 19 8 19
14 -3 3 -13 10 -20 15 -17 5 3 15 -1 22 -9 7 -8 17 -15 23 -15 6 0 0 11 -13
25 -12 13 -27 22 -33 18 -6 -3 -7 -2 -4 3 7 12 -1 23 -27 44 -18 14 -19 13
-13 -3 4 -11 3 -16 -4 -12 -5 4 -8 14 -6 23 2 10 -9 35 -24 57 -40 59 -204
230 -245 256 -42 25 -42 24 30 133 95 144 157 287 215 492 72 259 80 539 22
768 -50 196 -63 215 -359 516 -68 69 -119 116 -113 104 21 -43 53 -233 58
-349 3 -66 0 -169 -6 -230 -13 -123 -80 -410 -111 -476 -11 -24 -18 -35 -14
-24 13 41 16 214 5 300 -32 241 -130 498 -250 657 -109 144 -288 270 -436 308
-296 74 -572 -48 -698 -310 -25 -52 -61 -150 -81 -217 -72 -253 -140 -379
-275 -505 -43 -40 -113 -93 -156 -118 -74 -42 -243 -116 -249 -108 -2 1 61
199 140 438 78 239 163 500 188 578 70 216 129 322 248 448 100 105 241 194
376 238 39 13 53 23 58 42 3 13 11 21 16 18 6 -4 8 1 4 13 -4 11 0 35 8 54 14
32 15 32 16 9 0 -15 -6 -32 -12 -40 -11 -12 -10 -12 4 -2 11 9 18 10 23 2 3
-5 0 -10 -7 -10 -10 0 -10 -2 1 -9 11 -7 10 -10 -5 -14 -10 -3 4 -3 31 -1 42
3 45 2 20 -6 l-30 -9 28 2 c15 1 27 6 27 12 -1 5 7 13 17 17 10 4 -2 5 -27 3
l-45 -5 43 11 c24 6 42 16 42 24 0 18 37 38 56 31 8 -3 14 -2 14 3 0 5 19 19
43 30 23 12 34 20 24 17 -11 -4 -16 -2 -11 5 3 6 17 8 32 4 23 -6 24 -5 11 12
-8 10 -18 22 -24 26 -6 5 -1 6 10 1 26 -10 103 -6 127 7 43 23 56 87 33 169
-3 14 3 6 14 -17 21 -46 37 -59 21 -19 -11 29 -9 67 3 59 4 -3 6 -12 2 -20 -3
-9 15 4 41 29 l46 45 -17 33 c-15 29 -10 26 41 -23 53 -51 56 -57 43 -74 -13
-17 -13 -17 4 -4 16 12 30 2 145 -112 70 -69 138 -135 152 -145 170 -130 469
-102 601 57 51 61 89 149 91 214 1 31 4 57 7 57 2 0 14 -8 25 -17 11 -10 4 1
-17 25 -20 23 -37 47 -37 52 0 6 -106 118 -235 249 -129 131 -235 237 -235
236 0 -1 10 -24 22 -51 16 -37 21 -67 21 -126 -2 -187 -145 -343 -335 -365
-60 -7 -159 12 -219 42 -53 27 -119 88 -135 125 -17 37 -34 80 -34 85 0 14 18
2 28 -17 l11 -23 0 23 c1 24 36 32 44 10 3 -10 9 -9 23 3 10 9 35 22 56 28 20
7 39 18 42 26 3 9 19 15 41 15 19 0 35 4 35 9 0 5 24 21 54 36 37 18 58 36 66
55 16 39 40 59 40 34 0 -17 1 -17 16 -2 10 10 14 23 9 37 -7 24 -25 28 -25 6
0 -20 -27 -19 -38 2 -6 10 -25 18 -48 20 -22 1 -58 4 -81 7 -26 2 -43 0 -46
-8 -2 -6 -30 -11 -70 -12 -37 0 -70 -4 -73 -7 -3 -3 -12 -3 -20 0 -8 3 -14 0
-14 -7 0 -6 -4 -9 -9 -6 -5 3 -11 -4 -14 -17 -3 -12 -13 -44 -22 -72 l-15 -50
5 45 c16 137 103 253 225 300 79 30 224 34 278 8 18 -10 32 -12 32 -6 0 6 10
8 25 4 16 -4 25 -2 25 5 0 6 7 8 17 5 15 -6 15 -4 -2 14 -10 11 -14 20 -10 20
5 0 -8 18 -30 40 -21 21 -43 36 -49 33 -6 -3 -8 -3 -4 2 4 4 -61 80 -145 168
-84 88 -183 195 -222 236 -38 42 -126 135 -195 206 -70 72 -153 158 -185 193
-32 34 -62 62 -65 62 -4 0 -53 -141 -109 -312 -57 -172 -115 -349 -131 -393
-15 -44 -45 -133 -65 -198 -26 -80 -41 -114 -47 -105 -6 9 -7 5 -3 -9 7 -25
-24 -135 -36 -128 -4 3 -5 -5 -1 -17 4 -16 2 -19 -8 -13 -9 5 -11 4 -6 -4 4
-6 3 -26 -3 -44 -77 -251 -280 -876 -476 -1462 -106 -319 -239 -719 -295 -890
-56 -170 -107 -315 -113 -321 -7 -7 -102 -37 -212 -69 -368 -104 -486 -145
-673 -232 -29 -14 -55 -23 -58 -21 -2 3 54 182 125 399 72 217 181 554 244
749 64 195 151 461 195 590 44 129 125 372 180 540 55 168 150 457 212 643 99
300 110 342 101 369 -6 17 -8 35 -4 42 3 6 3 8 -2 4 -4 -4 -17 4 -28 18 -17
22 -18 29 -7 49 14 27 7 55 -14 55 -15 0 -29 -27 -21 -40 3 -5 12 -7 20 -3 8
3 15 3 15 0 0 -3 -6 -7 -13 -10 -7 -3 -29 11 -48 31 -34 35 -34 35 -4 16 30
-19 30 -19 15 1 -21 28 -31 34 -47 28 -7 -3 -16 2 -19 11 -3 9 -9 14 -13 12
-12 -8 -7 40 6 55 9 11 7 14 -13 15 -16 1 -24 -3 -24 -15 0 -13 2 -13 9 -2 7
10 9 7 8 -12 l-2 -27 -17 22 c-9 12 -14 27 -11 33 4 5 2 7 -2 2 -9 -8 -55 30
-55 46 0 5 -17 24 -37 43 -23 20 -30 31 -18 27 22 -8 64 -53 65 -69 0 -7 6
-14 14 -17 10 -4 14 1 13 16 -2 21 -61 85 -137 150 -17 15 -28 27 -24 27 15 1
-40 40 -55 40 -11 0 -11 -3 -1 -15 6 -8 17 -13 23 -12 7 1 11 -6 9 -15 -1 -9
7 -22 18 -28 11 -6 20 -15 20 -21 0 -13 -75 57 -113 106 l-31 40 30 -25 29
-25 -24 27 c-13 15 -26 27 -30 26 -21 -2 -32 9 -67 75 -60 110 -195 242 -304
296 -132 65 -209 82 -395 86 -106 3 -186 0 -236 -9z m1165 -622 c3 -8 2 -12
-4 -9 -6 3 -10 10 -10 16 0 14 7 11 14 -7z m2402 -416 c5 4 5 3 1 -2 -12 -15
-34 -15 -34 0 0 9 4 11 12 4 7 -5 16 -6 21 -2z m21 -38 c2 -21 -21 -28 -32
-10 -4 6 -11 7 -17 4 -7 -4 -8 -2 -4 4 4 6 13 9 20 6 8 -3 17 -1 21 5 9 15 11
14 12 -9z m-667 -760 c-8 -5 -22 -9 -30 -9 -10 0 -8 3 5 9 27 12 43 12 25 0z
m-303 -182 c-3 -8 -6 -5 -6 6 -1 11 2 17 5 13 3 -3 4 -12 1 -19z m-30 -80 c-3
-8 -6 -5 -6 6 -1 11 2 17 5 13 3 -3 4 -12 1 -19z m438 -722 c157 -42 256 -148
306 -329 31 -115 31 -326 0 -477 -95 -451 -361 -798 -761 -993 -163 -79 -339
-135 -460 -147 -47 -5 -96 -12 -109 -16 -15 -4 -22 -3 -18 3 8 12 -57 33 -102
33 -21 0 -31 5 -31 15 0 13 22 15 133 15 118 1 184 6 310 26 36 6 37 7 37 50
0 33 -3 42 -14 38 -8 -3 -17 -1 -21 5 -3 7 2 11 14 11 28 0 26 7 -11 42 -28
26 -33 28 -43 14 -7 -9 -15 -13 -18 -9 -4 3 1 11 10 18 14 10 12 15 -18 35
-19 14 -35 28 -37 32 -2 4 -17 8 -34 8 -35 0 -148 50 -148 66 0 17 -50 24
-194 26 -130 1 -130 1 54 8 216 9 319 28 456 87 367 158 609 511 654 953 12
116 2 216 -30 303 -22 59 -94 147 -145 179 l-30 18 100 0 c55 0 123 -6 150
-14z m-1680 -1388 c-4 -18 -8 -35 -11 -38 -3 -2 -3 9 0 25 2 17 5 33 5 38 1 4
3 7 6 7 3 0 3 -14 0 -32z m-56 8 c-15 -13 -49 -25 -49 -17 0 5 8 12 18 14 24
6 36 8 31 3z m13 -28 c-8 -8 -9 -4 -5 13 4 13 8 18 11 10 2 -7 -1 -18 -6 -23z
m-102 2 c-8 -5 -24 -9 -35 -9 -16 1 -16 2 5 9 35 11 48 11 30 0z m10 -20 c0
-5 -8 -10 -17 -10 -15 0 -16 2 -3 10 19 12 20 12 20 0z m83 -22 c4 -23 4 -23
15 2 l11 25 0 -25 c1 -35 -10 -70 -21 -70 -5 0 -22 -10 -37 -21 -16 -12 -34
-18 -40 -15 -7 5 -8 1 -4 -10 5 -14 2 -16 -15 -12 -15 4 -19 2 -15 -9 5 -12 1
-14 -17 -8 -17 5 -21 4 -15 -6 6 -9 3 -11 -8 -6 -15 6 -22 -3 -18 -25 0 -4 -7
-4 -16 -1 -9 4 -14 2 -10 -3 3 -6 -7 -18 -24 -28 -21 -12 -29 -14 -27 -4 2 9
-6 12 -24 10 -16 -2 -28 1 -28 6 0 5 10 8 22 8 15 -1 24 6 26 19 6 26 48 64
84 77 15 6 28 15 28 22 0 18 42 40 72 37 22 -2 27 1 22 13 -8 22 2 46 20 46 8
0 16 -10 19 -22z m-861 -83 c11 -4 -3 -56 -60 -229 l-74 -224 -62 -11 c-40 -7
-62 -7 -64 -1 -2 6 -10 10 -17 10 -20 0 -27 27 -31 115 -5 97 -11 128 -26 123
-7 -3 -20 4 -31 15 -16 16 -17 21 -6 28 10 6 11 11 3 17 -15 10 -26 41 -30 86
-4 44 -24 75 -24 37 l0 -23 -28 24 -29 23 46 6 c59 8 415 11 433 4z m-509 -22
c-7 -2 -21 -2 -30 0 -10 3 -4 5 12 5 17 0 24 -2 18 -5z m1067 -129 c0 -8 -4
-14 -10 -14 -5 0 -10 9 -10 21 0 11 5 17 10 14 6 -3 10 -13 10 -21z m50 7 c0
-5 -9 -11 -21 -14 -16 -4 -18 -3 -8 9 13 16 29 19 29 5z m-77 -38 c4 -3 -1
-12 -10 -18 -18 -13 -63 -1 -63 17 0 9 64 11 73 1z m-74 -44 c-22 -13 -31 -11
-17 5 7 8 17 12 22 9 4 -3 2 -9 -5 -14z m571 -16 c0 -7 -7 -13 -16 -13 -10 0
-14 -6 -10 -15 3 -8 1 -15 -4 -15 -13 0 -13 10 1 49 9 24 14 29 20 19 5 -7 9
-19 9 -25z m1821 -937 c-17 -10 -20 -15 -10 -18 8 -3 1 -5 -14 -5 l-29 0 29
18 c15 10 33 19 38 19 6 -1 -1 -7 -14 -14z m266 -28 c-3 -8 -6 -5 -6 6 -1 11
2 17 5 13 3 -3 4 -12 1 -19z m-332 -8 c-3 -5 -12 -10 -18 -10 -7 0 -6 4 3 10
19 12 23 12 15 0z m-3744 -73 c105 -54 167 -158 131 -219 -9 -15 -22 -28 -29
-28 -7 0 -13 -4 -13 -9 0 -5 -10 -13 -22 -16 -13 -4 -32 -15 -43 -25 -11 -10
-31 -21 -43 -25 -23 -7 -38 -19 -87 -65 -12 -11 -33 -20 -48 -20 -15 0 -27 -4
-27 -9 0 -9 -44 -29 -75 -34 -29 -4 -46 -17 -39 -29 4 -6 1 -9 -7 -6 -20 6
-77 93 -89 136 -25 93 -1 210 60 284 44 53 140 97 212 98 44 0 70 -7 119 -33z
m1974 -122 c-23 -8 -83 -10 -79 -3 3 4 24 8 47 7 23 0 38 -2 32 -4z m505 -55
c0 -5 -4 -10 -10 -10 -5 0 -10 5 -10 10 0 6 5 10 10 10 6 0 10 -4 10 -10z"/>
<path d="M6578 3513 c7 -3 16 -2 19 1 4 3 -2 6 -13 5 -11 0 -14 -3 -6 -6z"/>
<path d="M3385 2110 c3 -5 8 -10 11 -10 2 0 4 5 4 10 0 6 -5 10 -11 10 -5 0
-7 -4 -4 -10z"/>
<path d="M8129 8097 c19 -81 -77 -155 -150 -117 -10 6 -19 8 -19 5 0 -33 270
-311 310 -320 67 -15 150 50 150 117 0 47 -22 76 -164 217 -126 126 -134 132
-127 98z"/>
<path d="M7560 7997 c0 -29 -7 -46 -30 -69 -26 -26 -36 -30 -75 -26 -25 2 -45
0 -45 -5 0 -4 61 -71 137 -147 125 -129 139 -140 172 -140 74 0 136 71 112
131 -5 13 -68 85 -140 159 l-130 135 -1 -38z"/>
<path d="M5146 7878 c3 -5 10 -6 15 -3 13 9 11 12 -6 12 -8 0 -12 -4 -9 -9z"/>
<path d="M5177 7870 c-9 -11 -13 -20 -8 -20 11 0 35 29 29 35 -2 2 -12 -4 -21
-15z"/>
<path d="M5288 7883 c6 -2 18 -2 25 0 6 3 1 5 -13 5 -14 0 -19 -2 -12 -5z"/>
<path d="M3130 7746 c0 -11 30 -39 36 -34 2 3 -5 13 -16 23 -11 10 -20 15 -20
11z"/>
<path d="M3235 7710 c-10 -11 -14 -20 -9 -20 5 0 15 9 22 20 7 11 11 20 9 20
-2 0 -12 -9 -22 -20z"/>
<path d="M5360 7690 c0 -5 7 -10 15 -10 8 0 15 5 15 10 0 6 -7 10 -15 10 -8 0
-15 -4 -15 -10z"/>
<path d="M5440 7615 c0 -8 2 -15 4 -15 2 0 6 7 10 15 3 8 1 15 -4 15 -6 0 -10
-7 -10 -15z"/>
<path d="M5580 7504 c0 -8 5 -12 10 -9 6 3 10 10 10 16 0 5 -4 9 -10 9 -5 0
-10 -7 -10 -16z"/>
<path d="M3743 7485 c-8 -9 -9 -16 -3 -20 6 -4 8 -11 4 -16 -3 -6 4 -13 16
-16 16 -4 18 -8 9 -14 -8 -5 -17 -3 -21 4 -6 9 -10 8 -17 -3 -6 -8 -13 -11
-18 -7 -4 5 -1 12 7 17 8 5 12 12 8 15 -8 8 -66 -74 -124 -175 -169 -298 -353
-515 -546 -643 -73 -48 -92 -67 -68 -67 6 0 10 5 10 10 0 6 6 10 14 10 7 0 19
7 26 15 7 8 17 15 23 15 5 0 -3 -12 -19 -26 -16 -15 -23 -23 -16 -20 9 5 12
-5 12 -38 0 -42 2 -46 25 -46 14 0 25 -4 25 -9 0 -5 14 -14 30 -21 17 -7 35
-21 41 -31 5 -11 18 -19 27 -19 10 0 28 -9 40 -20 12 -11 25 -20 30 -20 12 0
52 -44 52 -58 0 -6 11 -14 25 -18 16 -4 25 -13 25 -25 0 -13 7 -19 24 -19 14
0 28 -5 31 -11 11 -17 56 43 49 65 -5 16 -4 17 9 5 13 -12 13 -17 -3 -39 -33
-46 -134 -141 -192 -180 -223 -149 -556 -181 -785 -75 -201 93 -317 230 -358
423 -16 77 -22 402 -7 402 4 0 36 -9 70 -20 67 -21 131 -28 84 -9 -13 5 -33
16 -44 24 l-22 14 25 10 c13 5 17 10 9 10 -8 0 -21 -3 -29 -8 -10 -7 -28 0
-59 21 -42 29 -43 30 -23 45 12 8 21 20 20 26 0 9 -2 8 -6 -1 -2 -7 -14 -17
-24 -23 -16 -8 -26 -5 -55 20 -39 34 -59 39 -68 15 -3 -9 -7 -84 -8 -167 -2
-148 -2 -149 -5 -34 -2 64 -8 117 -12 117 -5 0 -12 -34 -16 -75 -4 -42 -9 -74
-11 -73 -1 2 -5 30 -9 63 -3 33 -12 66 -20 74 -11 11 -15 12 -15 3 0 -9 -14
-12 -46 -11 -39 2 -49 -1 -64 -21 -13 -17 -15 -27 -7 -32 8 -5 7 -14 -2 -32
-8 -14 -17 -23 -22 -21 -4 3 -9 -3 -11 -12 -3 -10 -9 25 -15 77 -9 83 -11 51
-13 -260 -4 -429 -4 -434 22 -489 22 -46 361 -388 380 -383 5 1 7 -1 4 -6 -3
-5 8 -22 24 -37 29 -28 30 -28 44 -9 9 12 11 23 5 30 -7 8 -2 14 16 18 14 4
25 11 25 16 0 6 6 10 13 10 19 1 59 38 55 52 -3 7 -15 13 -28 13 -13 0 -25 6
-28 14 -4 11 2 13 27 8 25 -5 31 -3 31 10 0 35 24 83 42 83 10 0 18 4 18 9 0
5 3 16 6 24 7 19 -45 30 -66 14 -13 -10 -13 -10 -1 6 17 22 33 22 82 -4 28
-14 39 -25 35 -35 -3 -9 -1 -12 4 -9 6 4 16 0 24 -7 7 -7 165 -163 350 -345
l336 -333 162 0 c90 0 157 -4 150 -8 -7 -5 -32 -7 -57 -6 -25 2 -45 -1 -45 -6
0 -5 -10 -11 -22 -13 l-23 -4 23 -2 c12 0 22 -5 22 -11 0 -5 7 -10 15 -10 21
0 19 18 -2 23 -10 3 2 5 27 6 29 0 40 -2 31 -8 -9 -6 -10 -11 -2 -15 6 -4 9
-12 6 -17 -4 -5 -2 -9 3 -9 5 0 15 12 22 28 11 25 13 25 19 8 4 -11 10 -15 14
-10 3 6 2 16 -4 24 -11 19 -12 33 0 26 23 -15 50 49 166 394 69 206 160 474
201 595 41 121 88 261 103 310 16 50 92 281 170 515 78 234 141 429 141 433 0
10 -127 9 -215 -4 -42 -5 -107 -20 -145 -33 -66 -21 -70 -21 -75 -5 -3 10 -14
21 -24 24 -32 10 -62 42 -55 59 7 19 3 20 -13 1z m24 -105 c13 0 13 -3 3 -15
-16 -19 -30 -10 -29 18 0 12 3 16 6 10 2 -7 12 -13 20 -13z m-1907 -590 c0 -5
-4 -10 -10 -10 -5 0 -10 5 -10 10 0 6 5 10 10 10 6 0 10 -4 10 -10z m314 -698
c3 -5 -1 -9 -9 -9 -8 0 -12 4 -9 9 3 4 7 8 9 8 2 0 6 -4 9 -8z m91 -72 c10
-11 16 -20 13 -20 -3 0 -13 9 -23 20 -10 11 -16 20 -13 20 3 0 13 -9 23 -20z
m81 -58 c-7 -6 -56 18 -56 27 0 6 13 2 29 -7 16 -9 28 -18 27 -20z m-36 -17
c-7 -8 -18 -15 -24 -15 -6 0 -2 7 8 15 25 19 32 19 16 0z m10 -95 c0 -5 -7
-10 -16 -10 -8 0 -12 5 -9 10 3 6 10 10 16 10 5 0 9 -4 9 -10z"/>
<path d="M8205 7428 c0 -33 -7 -46 -38 -74 -39 -36 -90 -46 -116 -21 -11 10
-12 9 -5 -5 5 -9 57 -66 117 -127 97 -100 111 -111 143 -111 47 0 90 24 109
60 30 59 23 73 -110 213 l-100 105 0 -40z"/>
<path d="M5591 7393 c2 -26 15 -42 28 -34 17 11 7 41 -14 41 -8 0 -15 -3 -14
-7z"/>
<path d="M5732 7258 c-7 -7 -12 -16 -12 -21 0 -5 7 -1 16 8 9 9 14 18 12 20
-2 3 -10 -1 -16 -7z"/>
<path d="M7836 7037 c3 -10 9 -15 12 -12 3 3 0 11 -7 18 -10 9 -11 8 -5 -6z"/>
<path d="M1928 6925 c2 -14 6 -25 8 -25 2 0 4 11 4 25 0 14 -4 25 -9 25 -4 0
-6 -11 -3 -25z"/>
<path d="M7306 6931 c-4 -7 -5 -15 -2 -18 9 -9 19 4 14 18 -4 11 -6 11 -12 0z"/>
<path d="M8382 6867 c-36 -39 -28 -98 17 -121 35 -19 77 -9 101 22 26 32 25
63 -1 96 -27 35 -86 36 -117 3z"/>
<path d="M2430 6860 c0 -5 9 -14 20 -20 11 -6 20 -9 20 -8 0 2 -9 11 -20 21
-11 9 -20 13 -20 7z"/>
<path d="M2895 6530 c-3 -5 -1 -10 4 -10 6 0 11 5 11 10 0 6 -2 10 -4 10 -3 0
-8 -4 -11 -10z"/>
<path d="M7388 6362 c9 -10 19 -17 21 -16 6 5 -20 34 -30 34 -5 0 -1 -8 9 -18z"/>
<path d="M7364 6340 c0 -13 4 -16 10 -10 7 7 7 13 0 20 -6 6 -10 3 -10 -10z"/>
<path d="M3370 6211 c0 -10 19 -25 25 -20 1 2 -3 10 -11 17 -8 7 -14 8 -14 3z"/>
<path d="M6959 5987 c5 -5 24 -7 42 -5 33 3 33 4 -8 8 -23 3 -39 2 -34 -3z"/>
<path d="M6983 5963 c15 -2 39 -2 55 0 15 2 2 4 -28 4 -30 0 -43 -2 -27 -4z"/>
<path d="M6783 5943 c9 -2 23 -2 30 0 6 3 -1 5 -18 5 -16 0 -22 -2 -12 -5z"/>
<path d="M8090 5710 c-26 -26 -27 -90 -2 -113 30 -27 87 -22 111 9 12 15 21
37 21 49 0 12 -9 34 -21 49 -26 33 -79 36 -109 6z"/>
<path d="M1853 5671 c8 -22 7 -36 -3 -61 -23 -55 -106 -90 -138 -58 -9 9 -12
9 -12 0 0 -7 54 -66 119 -132 117 -118 120 -120 164 -120 38 0 52 6 81 34 41
38 48 84 19 126 -21 33 -203 219 -225 231 -14 8 -15 5 -5 -20z"/>
<path d="M2230 5649 c0 -5 5 -7 10 -4 6 3 10 8 10 11 0 2 -4 4 -10 4 -5 0 -10
-5 -10 -11z"/>
<path d="M2214 5619 c-3 -6 4 -21 17 -33 12 -11 17 -14 11 -5 -7 9 -10 24 -6
33 7 18 -11 22 -22 5z"/>
<path d="M2270 5570 c0 -5 5 -10 10 -10 6 0 10 5 10 10 0 6 -4 10 -10 10 -5 0
-10 -4 -10 -10z"/>
<path d="M2255 5540 c3 -5 8 -10 11 -10 2 0 4 5 4 10 0 6 -5 10 -11 10 -5 0
-7 -4 -4 -10z"/>
<path d="M2300 5531 c0 -11 4 -22 9 -25 4 -3 6 6 3 19 -5 30 -12 33 -12 6z"/>
<path d="M8530 5287 c0 -29 -7 -46 -30 -69 -26 -26 -36 -30 -74 -26 -37 2 -43
1 -36 -12 18 -32 156 -167 176 -172 28 -7 95 17 112 39 42 57 27 101 -69 198
l-79 80 0 -38z"/>
<path d="M3225 5150 c3 -5 8 -10 11 -10 2 0 4 5 4 10 0 6 -5 10 -11 10 -5 0
-7 -4 -4 -10z"/>
<path d="M3360 5121 c0 -17 18 -21 24 -6 3 9 0 15 -9 15 -8 0 -15 -4 -15 -9z"/>
<path d="M3280 5105 c-7 -8 -9 -15 -6 -15 4 0 14 7 22 15 9 8 11 15 6 15 -5 0
-15 -7 -22 -15z"/>
<path d="M3312 5088 c-7 -7 -12 -16 -12 -21 0 -5 7 -1 16 8 9 9 14 18 12 20
-2 3 -10 -1 -16 -7z"/>
<path d="M2720 5089 c0 -4 12 -33 27 -65 23 -49 28 -73 28 -140 0 -72 -4 -87
-37 -156 -40 -79 -86 -126 -164 -166 -51 -26 -155 -44 -206 -35 -35 5 -37 7
-24 22 11 12 12 27 6 61 -10 53 -10 49 1 78 8 20 6 25 -11 29 -11 3 -20 14
-20 24 0 11 -21 41 -46 68 -34 36 -53 48 -76 49 -17 0 -34 6 -38 13 -4 6 -26
11 -48 11 -34 -1 -41 3 -44 21 -7 41 -21 -115 -14 -166 3 -29 20 -81 37 -117
28 -57 71 -104 336 -367 166 -166 303 -298 303 -294 0 4 -3 11 -7 15 -5 4 -8
13 -8 19 -1 7 -6 11 -12 10 -7 -2 -21 10 -32 26 l-20 28 24 -2 c13 -2 29 -6
34 -10 16 -9 13 1 -3 18 -13 12 -6 14 47 16 34 1 84 8 110 16 26 8 55 12 65 9
15 -5 15 -4 2 6 -13 10 -11 11 8 7 13 -3 20 -1 16 5 -4 6 2 8 17 3 17 -4 20
-3 10 3 -17 12 1 24 26 16 14 -4 15 -4 4 4 -11 8 -10 12 6 21 11 5 24 7 28 3
5 -4 5 -2 2 4 -3 6 10 26 29 45 20 19 49 57 65 84 32 55 37 54 13 -3 -8 -20
-11 -32 -7 -27 5 6 19 22 32 37 12 14 29 43 37 65 l15 38 -6 -34 c-7 -48 -1
-37 29 44 l25 69 -22 27 c-103 125 -162 190 -336 369 -111 113 -201 202 -201
199z m-405 -539 c-3 -5 -12 -10 -18 -10 -7 0 -6 4 3 10 19 12 23 12 15 0z
m882 -137 c-3 -10 -5 -4 -5 12 0 17 2 24 5 18 2 -7 2 -21 0 -30z m13 -27 c0
-3 -4 -8 -10 -11 -5 -3 -10 -1 -10 4 0 6 5 11 10 11 6 0 10 -2 10 -4z m-23
-48 c-3 -8 -6 -5 -6 6 -1 11 2 17 5 13 3 -3 4 -12 1 -19z"/>
<path d="M1703 4799 c-32 -12 -56 -54 -49 -84 21 -82 146 -60 146 26 0 43 -52
75 -97 58z"/>
<path d="M1970 4317 c-82 -41 -53 -157 40 -157 51 0 80 27 80 74 0 48 -8 65
-41 81 -34 18 -47 18 -79 2z"/>
<path d="M3190 4300 c0 -5 5 -10 11 -10 5 0 7 5 4 10 -3 6 -8 10 -11 10 -2 0
-4 -4 -4 -10z"/>
<path d="M3186 4255 c-9 -26 -7 -32 5 -12 6 10 9 21 6 23 -2 3 -7 -2 -11 -11z"/>
<path d="M3130 4215 c0 -5 5 -17 10 -25 5 -8 10 -10 10 -5 0 6 -5 17 -10 25
-5 8 -10 11 -10 5z"/>
<path d="M2680 4030 c0 -5 5 -10 10 -10 6 0 10 5 10 10 0 6 -4 10 -10 10 -5 0
-10 -4 -10 -10z"/>
<path d="M8462 2855 c0 -16 2 -22 5 -12 2 9 2 23 0 30 -3 6 -5 -1 -5 -18z"/>
<path d="M8486 2843 c-6 -14 -5 -15 5 -6 7 7 10 15 7 18 -3 3 -9 -2 -12 -12z"/>
<path d="M8487 2813 c-3 -5 6 -9 20 -10 19 -1 22 1 12 8 -17 11 -26 11 -32 2z"/>
<path d="M7328 2583 c7 -3 16 -2 19 1 4 3 -2 6 -13 5 -11 0 -14 -3 -6 -6z"/>
<path d="M1553 2440 c-70 -28 -48 -140 28 -140 37 0 79 39 79 75 0 30 -41 75
-67 74 -10 0 -28 -4 -40 -9z"/>
<path d="M7470 2394 c0 -2 8 -23 18 -46 11 -29 17 -70 17 -128 0 -71 -4 -94
-27 -142 -37 -80 -105 -149 -181 -184 -54 -25 -74 -29 -152 -29 -76 0 -99 4
-145 26 -73 34 -125 80 -161 143 -37 66 -39 32 -1 -42 21 -42 78 -104 252
-274 123 -121 238 -227 255 -235 181 -94 426 -29 544 146 65 96 87 201 55 264
-25 47 -48 74 -246 275 -98 101 -183 194 -188 206 -4 13 -15 23 -24 23 -9 0
-16 -2 -16 -3z"/>
<path d="M7582 2346 c7 -8 15 -12 17 -11 5 6 -10 25 -20 25 -5 0 -4 -6 3 -14z"/>
<path d="M5950 2290 c0 -5 7 -10 15 -10 8 0 15 5 15 10 0 6 -7 10 -15 10 -8 0
-15 -4 -15 -10z"/>
<path d="M5572 2215 c0 -16 2 -22 5 -12 2 9 2 23 0 30 -3 6 -5 -1 -5 -18z"/>
<path d="M6131 2137 c11 -25 19 -65 19 -98 0 -119 -85 -204 -204 -204 -54 0
-67 4 -106 33 -53 38 -63 27 -24 -26 51 -68 329 -338 366 -355 47 -22 133 -21
184 2 125 57 187 184 136 280 -18 33 -355 393 -379 404 -7 3 -4 -12 8 -36z"/>
<path d="M1733 2018 c-38 -27 -49 -65 -34 -111 15 -43 275 -303 314 -312 33
-9 82 10 102 39 8 11 15 38 15 58 0 35 -11 50 -111 161 -161 178 -172 187
-216 187 -24 0 -51 -9 -70 -22z"/>
<path d="M2478 1961 c4 -36 0 -45 -31 -76 -35 -35 -88 -48 -102 -25 -8 13 -25
13 -25 -1 0 -18 240 -257 269 -267 62 -21 141 37 141 104 0 36 -9 48 -176 223
l-80 83 4 -41z"/>
</g>
</svg>
